<?xml version="1.0" encoding="utf-8"?>
<!-- Generator: Adobe Illustrator 17.1.0, SVG Export Plug-In . SVG Version: 6.00 Build 0)  -->
<!DOCTYPE svg PUBLIC "-//W3C//DTD SVG 1.1//EN" "http://www.w3.org/Graphics/SVG/1.1/DTD/svg11.dtd">
<svg version="1.1" id="Layer_1" xmlns="http://www.w3.org/2000/svg" xmlns:xlink="http://www.w3.org/1999/xlink" x="0px" y="0px"
	 viewBox="0 0 32 32" enable-background="new 0 0 32 32" xml:space="preserve">
<image display="none" overflow="visible" width="427" height="640" xlink:href="5AC9379278237569.jpg"  transform="matrix(1 0 0 1 -198 -304)">
</image>
<path fill="#F2F3F7" d="M-139.9,24c0-0.5-0.3-1.3-0.2-2.2c0-1,0.5-1.8,1.5-0.8c0.2,0.2,0.4,0.8,0.7,1.2c0,0,0.9-1.8,2.2-2.7
	c0.9-0.6,2.2-0.7,3,0.5c0.3,0.4,0.2,0.8,0.4,1.6c0,0,0.4-0.5,0.8-0.8c0.5-0.4,1.2-0.4,1.2,0.7c0,0.4-0.1,0.9-0.3,1.6
	c0,0-0.1,1-0.4,1.6c-0.2,0.4-1.7,2-0.1,4.6s0.2,4.2,0.2,4.2s-2.1-0.5-2.3,0.2s-1.7-0.4-1.4-0.2c0.3,0.2-1.4-0.3-2,0.2
	c-0.6,0.6-1.8-0.6-1.5-0.2c0.4,0.3-1.9,0.4-1.9-0.6s1-4.5,1-5.3c0-0.6,0-1.2-0.4-2.1c-0.1-0.2-0.2-0.7-0.4-0.9
	C-139.8,24.6-139.9,24.2-139.9,24z"/>
<path fill="#362126" d="M-135.2,25c0,0.2-0.1,0.4-0.3,0.4c-0.2,0-0.3-0.1-0.3-0.3c-0.1-0.2,0.2-0.5,0.3-0.5
	C-135.3,24.5-135.2,24.7-135.2,25z"/>
<ellipse fill="#362126" cx="-133.7" cy="24.6" rx="0.3" ry="0.4"/>
<path fill="#362126" d="M-134.1,26.7c0.1,0.2-0.1,0.4-0.3,0.4c-0.2,0-0.4,0-0.4-0.3c0-0.2,0.2-0.4,0.4-0.4
	C-134.2,26.3-134.2,26.5-134.1,26.7z"/>
</svg>
